<?xml version="1.0" standalone="no"?>
<!DOCTYPE svg PUBLIC "-//W3C//DTD SVG 20010904//EN"
 "http://www.w3.org/TR/2001/REC-SVG-20010904/DTD/svg10.dtd">
<svg version="1.0" xmlns="http://www.w3.org/2000/svg"
 width="261.000000pt" height="261.000000pt" viewBox="0 0 261.000000 261.000000"
 preserveAspectRatio="xMidYMid meet">
<metadata>
Created by potrace 1.14, written by Peter Selinger 2001-2017
</metadata>
<g transform="translate(0.000000,261.000000) scale(0.100000,-0.100000)"
fill="#000000" stroke="none">
<path d="M1229 2548 c-105 -101 -185 -221 -232 -348 -62 -169 -63 -359 -2
-624 16 -69 99 -310 148 -426 6 -14 11 -27 12 -30 1 -3 5 -12 8 -20 24 -55 68
-204 74 -247 6 -53 6 -53 42 -54 34 -1 74 1 78 4 0 1 4 20 7 41 11 70 36 147
117 357 43 114 79 212 79 218 0 6 4 19 9 29 39 70 83 303 85 442 1 164 -14
242 -72 370 -42 93 -111 192 -192 273 -43 42 -82 77 -87 77 -5 0 -38 -28 -74
-62z"/>
<path d="M809 1838 c-56 -55 -81 -114 -82 -194 -1 -62 -10 -77 -33 -55 -16 16
-116 30 -199 27 -225 -8 -381 -166 -361 -363 13 -122 73 -226 165 -284 24 -16
46 -28 47 -26 1 1 5 20 8 42 29 188 146 287 329 280 174 -7 330 -167 386 -397
l16 -68 37 0 c41 0 48 10 37 60 -4 19 -10 49 -13 65 -9 51 -78 235 -133 354
-77 168 -146 434 -147 564 0 20 -3 37 -7 37 -4 0 -26 -19 -50 -42z"/>
<path d="M1739 1848 c-1 -61 -8 -115 -24 -193 -10 -46 -54 -201 -66 -232 -7
-15 -18 -44 -26 -63 -8 -19 -18 -44 -22 -55 -12 -29 -52 -125 -67 -160 -45
-106 -94 -274 -94 -322 0 -20 5 -23 38 -23 l38 0 24 83 c56 195 174 338 309
373 119 31 259 -7 325 -89 37 -47 76 -142 76 -187 0 -38 15 -38 68 -2 83 56
137 149 150 262 8 70 -2 143 -28 190 -40 74 -143 149 -240 175 -83 22 -227 13
-312 -20 -14 -6 -16 0 -11 44 3 33 -1 68 -12 100 -16 49 -71 123 -106 141 -17
10 -19 7 -20 -22z"/>
<path d="M862 749 c-44 -9 -70 -35 -78 -77 -8 -43 16 -94 52 -111 32 -14 891
-16 928 -1 34 12 56 49 58 94 1 30 -5 44 -30 69 l-32 31 -433 1 c-238 0 -447
-2 -465 -6z"/>
<path d="M1005 469 c-66 -68 -162 -124 -236 -135 -48 -8 -49 -17 -6 -35 39
-17 120 -17 141 0 12 10 20 9 43 -8 15 -11 43 -23 62 -26 29 -5 32 -3 26 12
-26 63 -13 94 64 150 32 24 61 52 64 63 5 18 0 20 -56 20 -59 0 -64 -2 -102
-41z"/>
<path d="M1235 462 c-10 -65 -42 -147 -72 -183 -24 -28 -93 -71 -110 -68 -5 1
-16 1 -27 0 -16 -1 -16 -3 -5 -17 31 -37 106 -58 160 -43 23 6 26 3 38 -35 12
-43 63 -106 85 -106 25 0 86 85 86 119 0 18 6 20 58 19 57 -1 92 9 125 35 25
20 22 24 -21 32 -51 8 -90 35 -124 86 -29 43 -57 125 -61 176 -2 27 -4 28 -64
30 l-61 2 -7 -47z"/>
<path d="M1440 496 c0 -18 19 -38 76 -77 37 -25 74 -73 74 -94 0 -3 -7 -19
-16 -36 l-16 -31 34 7 c18 4 45 15 61 26 22 16 31 17 48 9 34 -19 62 -21 111
-9 55 13 80 34 43 37 -72 6 -222 91 -272 156 -18 23 -28 26 -82 26 -46 0 -61
-3 -61 -14z"/>
</g>
</svg>
