<?xml version="1.0" encoding="UTF-8"?><svg id="Layer_2" xmlns="http://www.w3.org/2000/svg" viewBox="0 0 163.03 139.74"><defs><style>.cls-1,.cls-2,.cls-3{fill:#fff;}.cls-2{opacity:.2;}.cls-3{fill-rule:evenodd;}</style></defs><g id="Logos"><g><g><path class="cls-1" d="M150.37,45.96v-15.44h-25.81C115.18,12.1,99.4,0,81.52,0S47.85,12.1,38.47,30.53H12.67v15.44C4.65,52.88,0,61.08,0,69.87s4.65,17,12.67,23.91v15.44h25.81c9.38,18.43,25.16,30.53,43.04,30.53s33.67-12.1,43.04-30.53h25.81v-15.44c8.02-6.91,12.67-15.11,12.67-23.91s-4.65-17-12.67-23.91Zm-1.01,46.95l-.41,.36v14.72h-25.32l-.37,.73c-9.49,18.66-25.1,29.8-41.74,29.8s-32.25-11.14-41.74-29.8l-.37-.73H14.09v-14.72l-.41-.36c-8.02-6.91-12.25-14.88-12.25-23.05s4.24-16.14,12.25-23.05l.41-.36v-14.72h25.32l.37-.73C49.27,12.36,64.88,1.22,81.52,1.22s32.25,11.14,41.74,29.8l.37,.73h25.32v14.72l.41,.36c8.02,6.91,12.25,14.88,12.25,23.05s-4.24,16.14-12.25,23.05Z"/><path class="cls-1" d="M136.6,50.75v-12.35h-20.65c-7.5-14.74-20.13-24.42-34.43-24.42s-26.93,9.68-34.43,24.42H26.44v12.35c-6.42,5.53-10.13,12.09-10.13,19.13s3.72,13.6,10.13,19.13v12.35h20.65c7.5,14.74,20.12,24.42,34.43,24.42s26.93-9.68,34.43-24.42h20.65v-12.35c6.42-5.53,10.13-12.09,10.13-19.13s-3.72-13.6-10.13-19.13Zm-.81,37.56l-.33,.29v11.78h-20.25l-.3,.59c-7.59,14.93-20.08,23.84-33.39,23.84s-25.8-8.91-33.39-23.84l-.3-.59H27.58v-11.78l-.33-.29c-6.41-5.53-9.8-11.9-9.8-18.44s3.39-12.91,9.8-18.44l.33-.29v-11.77h20.25l.3-.59c7.59-14.93,20.08-23.84,33.39-23.84s25.8,8.91,33.39,23.84l.3,.59h20.25v11.77l.33,.29c6.41,5.53,9.8,11.9,9.8,18.44s-3.39,12.91-9.8,18.44Z"/><g><path class="cls-1" d="M56.87,19.1c-.14-1.89,1.85-4.09,8.73-4.41,11.82-.55,17.35-10.15,12.49-12.14-1.39-.57-2.94,.33-3.18,1.33-.59,2.42,3.21,2.04,2.64,.4-.17-.49-.86-.74-1.54-.56-.04,0-.07,.02-.11,.03,1.2-1.55,3.26-.24,3.02,1.61-.38,2.96-5.22,7.82-14.98,8.4-7.3,.43-7.76,4.48-7.8,5.64-.05,1.46,.85,1.23,.74-.31Z"/><path class="cls-1" d="M65.58,125.03c-6.88-.32-8.87-2.52-8.73-4.41,.12-1.54-.79-1.77-.74-.31,.04,1.16,.5,5.21,7.8,5.64,9.75,.58,14.6,5.44,14.98,8.4,.24,1.85-1.82,3.16-3.02,1.61,.04,.01,.07,.02,.11,.03,.68,.18,1.37-.08,1.54-.56,.57-1.64-3.23-2.01-2.64,.4,.25,1.01,1.79,1.91,3.18,1.33,4.85-1.99-.67-11.58-12.49-12.14Z"/><path class="cls-1" d="M63.6,126.51c-1.41-.43-.96-.03,.28,.29,1.46,.37,2.93,1.92,1.39,2.53-1.48,.58,1.46,1.85,2.11,.11,.63-1.68-2.91-2.66-3.79-2.93Z"/><path class="cls-1" d="M59.76,123.18c-1.14-.53-1.79-.52-.44,.03,.84,.34,4.15,1.81,5.09,.24,.98-1.62-2.14-2.52-1.58-1.21,.58,1.36-1.74,1.56-3.08,.94Z"/><path class="cls-1" d="M106.2,120.6c.14,1.89-1.85,4.09-8.73,4.41-11.82,.55-17.35,10.15-12.49,12.14,1.39,.57,2.94-.33,3.18-1.33,.59-2.42-3.21-2.04-2.64-.4,.17,.49,.86,.74,1.54,.56,.04,0,.07-.02,.11-.03-1.2,1.55-3.26,.24-3.02-1.61,.38-2.96,5.22-7.82,14.98-8.4,7.3-.43,7.76-4.48,7.8-5.64,.05-1.46-.85-1.23-.74,.31Z"/><path class="cls-1" d="M99.46,126.49c-.88,.27-4.42,1.24-3.79,2.93,.65,1.74,3.59,.47,2.11-.11-1.54-.61-.06-2.16,1.39-2.53,1.24-.32,1.69-.72,.28-.29Z"/><path class="cls-1" d="M98.64,123.43c.95,1.57,4.25,.11,5.09-.24,1.35-.55,.7-.56-.44-.03-1.34,.62-3.66,.43-3.08-.94,.56-1.31-2.56-.41-1.58,1.21Z"/><path class="cls-1" d="M22.3,91.07c-2.21,.12-4.77-1.58-5.15-7.48-.65-10.13-11.84-14.87-14.16-10.71-.67,1.19,.38,2.52,1.56,2.73,2.82,.5,2.38-2.75,.47-2.26-.57,.15-.86,.74-.66,1.32,.01,.03,.02,.06,.04,.09-1.8-1.03-.28-2.79,1.88-2.59,3.45,.32,9.13,4.48,9.8,12.84,.51,6.26,5.23,6.65,6.58,6.69,1.7,.04,1.43-.73-.36-.63Z"/><path class="cls-1" d="M12,82.04c-2.03,.56-.55,3.08,.13,1.81,.71-1.32,2.51-.05,2.95,1.19,.37,1.06,.84,1.45,.34,.24-.32-.75-1.45-3.79-3.42-3.25Z"/><path class="cls-1" d="M20.4,85.94c1.53,.48,.48-2.19-1.41-1.36-1.83,.81-.12,3.64,.28,4.36,.64,1.16,.66,.6,.04-.37-.72-1.14-.5-3.14,1.09-2.64Z"/><path class="cls-1" d="M17.17,56.25c.38-5.9,2.94-7.6,5.15-7.48,1.79,.1,2.07-.67,.36-.63-1.35,.04-6.07,.43-6.58,6.69-.68,8.36-6.35,12.51-9.8,12.84-2.16,.2-3.68-1.56-1.88-2.59-.01,.03-.03,.06-.04,.09-.2,.58,.09,1.17,.66,1.32,1.91,.49,2.35-2.77-.47-2.26-1.17,.21-2.22,1.53-1.56,2.73,2.32,4.16,13.51-.58,14.16-10.71Z"/><path class="cls-1" d="M12.02,57.8c1.96,.54,3.1-2.49,3.42-3.25,.51-1.21,.03-.82-.34,.24-.44,1.25-2.24,2.51-2.95,1.19-.68-1.27-2.15,1.25-.13,1.81Z"/><path class="cls-1" d="M19.29,50.88c-.4,.72-2.11,3.55-.28,4.36,1.89,.84,2.94-1.84,1.41-1.36-1.59,.5-1.82-1.49-1.09-2.64,.62-.97,.6-1.53-.04-.37Z"/><path class="cls-1" d="M160.03,72.89c-2.32-4.16-13.51,.58-14.16,10.71-.38,5.9-2.94,7.6-5.15,7.48-1.79-.1-2.07,.67-.36,.63,1.35-.04,6.07-.43,6.58-6.69,.68-8.36,6.35-12.51,9.8-12.84,2.16-.2,3.68,1.56,1.88,2.59,.01-.03,.03-.06,.04-.09,.2-.58-.09-1.17-.66-1.32-1.91-.49-2.35,2.77,.47,2.26,1.17-.21,2.22-1.53,1.56-2.73Z"/><path class="cls-1" d="M151.02,82.05c-1.96-.54-3.1,2.49-3.42,3.25-.51,1.21-.03,.82,.34-.24,.44-1.25,2.24-2.51,2.95-1.19,.68,1.27,2.15-1.25,.13-1.81Z"/><path class="cls-1" d="M143.75,88.97c.4-.72,2.11-3.55,.28-4.36-1.89-.84-2.94,1.84-1.41,1.36,1.59-.5,1.82,1.49,1.09,2.64-.62,.97-.6,1.53,.04,.37Z"/><path class="cls-1" d="M140.7,48.78c2.21-.12,4.77,1.58,5.15,7.48,.65,10.13,11.84,14.87,14.16,10.71,.67-1.19-.38-2.52-1.56-2.73-2.82-.51-2.38,2.75-.47,2.26,.57-.15,.86-.74,.66-1.32-.01-.03-.02-.06-.04-.09,1.8,1.03,.28,2.79-1.88,2.59-3.45-.32-9.13-4.48-9.8-12.84-.51-6.26-5.23-6.65-6.58-6.69-1.7-.04-1.43,.73,.36,.63Z"/><path class="cls-1" d="M151,57.81c2.03-.56,.55-3.08-.13-1.81-.71,1.32-2.51,.05-2.95-1.19-.37-1.06-.84-1.45-.34-.24,.32,.75,1.45,3.79,3.42,3.25Z"/><path class="cls-1" d="M142.6,53.91c-1.53-.48-.48,2.19,1.41,1.36,1.83-.81,.12-3.64-.28-4.36-.64-1.16-.66-.6-.04,.37,.72,1.14,.5,3.14-1.09,2.64Z"/><path class="cls-1" d="M63.59,13.21c.88-.27,4.42-1.24,3.79-2.93-.65-1.74-3.59-.47-2.11,.11,1.54,.61,.06,2.16-1.39,2.53-1.24,.32-1.69,.72-.28,.29Z"/><path class="cls-1" d="M64.4,16.27c-.95-1.57-4.25-.11-5.09,.24-1.35,.55-.7,.56,.44,.03,1.34-.62,3.66-.43,3.08,.94-.56,1.31,2.56,.41,1.58-1.21Z"/><g><path class="cls-1" d="M97.49,14.71c6.88,.32,8.87,2.52,8.73,4.41-.12,1.54,.79,1.77,.74,.31-.04-1.16-.5-5.21-7.8-5.64-9.75-.58-14.6-5.45-14.98-8.4-.24-1.85,1.82-3.16,3.02-1.61-.04-.01-.07-.02-.11-.03-.68-.17-1.37,.08-1.54,.56-.57,1.64,3.23,2.01,2.64-.4-.25-1.01-1.79-1.91-3.18-1.33-4.85,1.99,.67,11.58,12.49,12.14Z"/><path class="cls-1" d="M99.45,13.23c1.41,.43,.96,.03-.28-.29-1.46-.37-2.93-1.92-1.39-2.53,1.48-.58-1.46-1.85-2.11-.11-.63,1.68,2.91,2.66,3.79,2.93Z"/><path class="cls-1" d="M103.29,16.56c1.14,.53,1.79,.52,.44-.03-.84-.34-4.15-1.81-5.09-.24-.98,1.62,2.14,2.52,1.58,1.21-.58-1.36,1.74-1.56,3.07-.94Z"/></g></g></g><g><path class="cls-3" d="M75.66,110.1c-.77,.15-1.53-.3-1.7-1.01-.3-.71-.23-1.52,.2-2.17,.17-.22,.43-.36,.72-.38,.29-.02,.57,.09,.76,.29,.05,.07,.08,.15,.09,.23,.03,.09,.06,.18,.09,.27,.03,.13,.12,.24,.23,.3,.12,.07,.26,.08,.4,.05,.13-.04,.25-.12,.31-.24,.06-.12,.08-.25,.03-.37-.43-.75-1.39-1.08-2.24-.77-.46,.15-.87,.4-1.2,.74-.05,.03-.1,.05-.16,.06-.13,0-.26,0-.39,0-.14,0-.28,.01-.42,.02-.05,0-.11,0-.15-.03-.03-.01-.04-.04-.03-.07,.03-.1,.07-.21,.12-.31,.25-.69,.14-1.44-.31-2.04-.09-.15-.16-.32-.2-.49-.01-.07-.06-.12-.13-.15-.1-.02-.21-.03-.31-.02-1.15,0-2.29,0-3.44,.01-.17,0-.32,.09-.38,.23l-3.19,6.36s0,.06,.01,.08c.02,.03,.05,.05,.09,.06,.31,.02,.61,.03,.92,.02,.08,0,.16,0,.24,0,.05,0,.1-.02,.14-.06,.09-.1,.15-.2,.2-.32,.16-.31,.32-.63,.5-.94,.05-.08,.15-.14,.25-.14,.59-.02,1.17-.02,1.76,0,.07,0,.13,.04,.16,.09,.03,.09,.04,.19,.03,.29,.01,.31,.05,.61,.11,.92,.01,.07,.07,.12,.13,.15,.1,.02,.21,.03,.32,.02,.91,0,1.82,0,2.72,0,.07,0,.14-.03,.18-.09l.02-.07c0-.09,.02-.18,.04-.27l.05-.08c.11-.11,.21-.23,.3-.36,.05-.08,.05-.18,.02-.27-.05-.14-.14-.26-.27-.35l-.07-.06c-.04-.05-.07-.11-.07-.18,0-.1-.01-.21-.01-.31,0-.04,.02-.08,.04-.11,0,0,.02-.01,.03,0,.03,.01,.05,.03,.07,.05,.1,.12,.23,.22,.38,.28l.13,.07c.08,.06,.14,.14,.19,.23,.15,.61,.57,1.13,1.15,1.44,.48,.22,1.04,.24,1.53,.06,.5-.18,.9-.54,1.1-1,.09-.17,.16-.34,.21-.52,0-.04,0-.07-.03-.1-.01-.02-.04-.03-.06-.02-.05,.02-.1,.05-.13,.09-.08,.11-.16,.23-.24,.34-.21,.27-.51,.46-.85,.56h0Zm-5.19-.13l-.08,.02c-.05,0-.1,.01-.16,0-.03,0-.06-.02-.08-.04-.05-.06-.07-.14-.05-.21,0-.01,.02-.03,.03-.03,.05-.01,.1-.01,.15-.01,.05,0,.1,0,.15,0,.03,0,.05-.01,.07-.02,.05-.03,.1-.06,.16-.08,.04-.02,.08-.04,.12-.06,.02,0,.04-.01,.06-.02,.13,0,.25,0,.38,0,.12-.01,.24,0,.35,.03,.03,.01,.07,.03,.1,.05,.02,.01,.04,.02,.06,.03,.11,.07,.25,.09,.37,.05l.07-.02s.05,.01,.07,.03c.02,.02,.02,.04,.02,.07,0,.05-.02,.09-.04,.13-.01,.02-.03,.05-.05,.07-.02,.01-.03,.02-.05,.03-.05,0-.11,0-.16,0h-.02s-.09-.03-.14-.05c-.05-.02-.1-.03-.15-.04-.04,0-.09,.02-.11,.05,0,0-.02,.02-.02,.03-.02,.05-.05,.1-.07,.15-.02,.08-.06,.15-.11,.21-.05,.06-.14,.07-.2,.03l-.06-.06c-.08-.09-.15-.19-.21-.3l-.04-.06s-.07-.05-.12-.04l-.07,.02s-.1,.04-.15,.05h0Zm.65-1.04c.17,0,.34,0,.52,0,.04,0,.07,.02,.09,.05v.07s.01,.1,0,.14c0,.02-.02,.03-.04,.03-.33-.03-.66-.05-.99-.05-.03,0-.06-.02-.08-.04-.02-.04-.01-.08,.01-.12,.02-.04,.06-.06,.11-.07,.13-.01,.26-.02,.39-.01h0Zm1.58-.76c-.05-.07-.13-.13-.22-.16-.3-.05-.61,.09-.74,.35-.04,.07-.09,.13-.13,.2h0s-.08,.05-.13,.05c-.19-.02-.39-.03-.58-.03-.03,0-.06-.01-.08-.03-.03-.03-.06-.06-.09-.09-.15-.28-.45-.46-.79-.47-.05,0-.1,.02-.13,.05l-.05,.05c-.04,.07-.07,.13-.1,.2-.01,.03-.01,.05,0,.08,.02,.06,.05,.11,.1,.15l.05,.05s.01,.04,0,.06c-.01,.02-.04,.04-.06,.04-.11,0-.22,0-.34,0-.1,0-.21-.03-.28-.09-.23-.26-.29-.62-.14-.93,.03-.16,.14-.29,.31-.35,.45-.05,.9,.07,1.25,.33,.04,.03,.09,.05,.14,.06l.07,.02s.09,.06,.11,.11c.04,.07,.07,.15,.1,.23,.02,.1,.05,.19,.07,.29,.01,.04,.04,.07,.08,.09,.06,.02,.12,0,.17-.02,.05-.03,.08-.08,.09-.14,.06-.52,.09-1.05,.08-1.58,0-.1,.04-.21,.1-.29,.08-.12,.11-.26,.08-.4-.04-.15-.08-.29-.1-.44v-.15c.02-.18,.01-.37-.02-.55,0-.07-.04-.14-.11-.19-.06-.05-.14-.07-.22-.06-.05,0-.1,.01-.13,.04l-.05,.06c-.08,.11-.16,.23-.24,.33-.1,.1-.13,.25-.08,.38,.04,.12,.1,.23,.18,.33,.12,.16,.15,.37,.09,.55-.04,.14-.07,.29-.08,.43,.02,.14,.06,.29,.1,.43,.02,.08,.02,.15,0,.23-.01,.05-.05,.09-.09,.12-.03,.02-.08,.02-.1,0l-.1-.12c-.14-.2-.25-.42-.33-.64-.42-.81-.15-1.78,.65-2.29,.1-.09,.26-.1,.37-.02,.35,.23,.62,.56,.77,.93,.17,.72,0,1.47-.46,2.07-.04,.05-.07,.1-.09,.16,0,.02,0,.05,0,.07,.02,.02,.04,.04,.07,.04,.05,0,.1-.01,.15-.04,.34-.22,.73-.35,1.15-.36,.16,0,.31,.08,.38,.21,.16,.18,.23,.41,.18,.64-.05,.23-.22,.42-.44,.52-.1,.01-.2,.02-.3,.03-.05,0-.1,0-.15-.03-.01,0-.02-.02-.02-.03,0-.02,0-.04,.02-.06,.04-.04,.07-.09,.09-.14l.04-.07s.02-.09,0-.13l-.04-.06h0Zm-4.96-1.28l.29-.58c.1-.23,.21-.44,.33-.66,.01-.01,.03-.02,.04-.02,.01,0,.03,0,.04,.02l.04,.16c.05,.64,.1,1.29,.16,1.93,0,.08,0,.16-.05,.23-.05,.06-.13,.1-.21,.11-.2,.01-.39,.02-.59,.02-.13,0-.26,0-.39,0-.05,0-.1-.04-.12-.08-.02-.05-.02-.11,0-.16,.14-.32,.3-.63,.45-.94h0Zm13.32,3.29s-.1,0-.14,0c-.04-.01-.07-.04-.09-.08-.04-.09-.06-.19-.05-.29-.02-.93-.07-1.85-.13-2.78-.17-.54-.73-.88-1.33-.81-.85-.16-1.69,.29-1.95,1.06-.02,.09,0,.18,.07,.25,.06,.07,.14,.13,.22,.19,.08,.05,.19,.06,.28,.04,.09-.03,.17-.09,.21-.17,.09-.17,.15-.36,.16-.55,.11-.33,.45-.54,.82-.51,.37,.04,.66,.31,.69,.65,.04,.16,.05,.33,.04,.49,0,.07-.04,.13-.1,.16-.63,.23-1.25,.5-1.84,.81-.41,.19-.68,.56-.72,.99-.04,.42,.17,.83,.53,1.08,.59,.23,1.28,.11,1.74-.31,.07-.05,.15-.1,.23-.14,.03-.01,.06-.02,.1-.01,.02,0,.04,.02,.05,.04,.03,.09,.07,.18,.11,.27,.22,.27,.62,.33,.92,.14,.2-.11,.39-.26,.54-.43l.11-.14s0-.08-.03-.1c-.03-.03-.08-.03-.11-.01l-.09,.06c-.06,.02-.11,.05-.16,.08l-.08,.02h0Zm-2.94-.49c-.03-.19-.01-.38,.04-.56,.23-.34,.58-.59,.98-.71,.18-.1,.37-.16,.57-.2,.02,0,.05,0,.07,.02,.02,.02,.04,.04,.05,.06,.03,.12,.04,.24,.03,.37,0,.33,0,.66-.01,.99,0,.1-.06,.2-.15,.26-.21,.13-.44,.25-.68,.35-.1,.05-.23,.06-.34,.03-.28-.1-.5-.33-.57-.61h0Zm7.86,.5s-.03-.02-.05-.03c-.02-.02-.03-.03-.04-.05-.02-.05-.03-.11-.04-.16-.04-1.94-.06-3.88-.07-5.82,0-.08-.04-.15-.1-.2-.04-.02-.09-.03-.14-.03-.14,.03-.27,.07-.39,.13-.28,.1-.56,.21-.84,.32-.05,.02-.09,.06-.12,.11-.01,.02-.02,.05,0,.08,.01,.02,.03,.04,.06,.05,.05,0,.11,0,.16,0,.13-.01,.25,.02,.35,.1,.1,.08,.15,.19,.15,.31,.02,.43,.03,.85,.02,1.28l-.02,.16s-.03,.03-.05,.04c-.03,0-.07,0-.1,0-.55-.27-1.21-.29-1.78-.06-.57,.23-1,.69-1.17,1.25-.51,1.02-.23,2.23,.69,2.96,.68,.48,1.63,.42,2.24-.15,.03-.02,.07-.04,.12-.04,.02,0,.04,.01,.05,.04,.01,.08,.02,.16,.03,.23,0,.05,0,.1,.02,.16,.01,.03,.04,.06,.08,.07h.07c.19-.03,.38-.09,.55-.18,.23-.09,.47-.18,.7-.26,.06-.02,.11-.06,.14-.11l.02-.06s-.05-.07-.09-.07h-.09c-.09,0-.18,0-.27-.02l-.08-.02h0Zm-2.39-3.63c.3-.04,.61,.03,.85,.2,.24,.17,.4,.43,.43,.71,.05,.73,.06,1.46,.04,2.19,.01,.11-.02,.22-.09,.32-.31,.33-.81,.44-1.25,.29-.73-.39-1.13-1.14-1.03-1.92-.13-.75,.29-1.49,1.04-1.8h0Zm9.22,3.63c-.11,.02-.22-.04-.26-.14-.04-.12-.05-.25-.04-.37,.02-.88,0-1.76-.08-2.64-.2-.55-.8-.89-1.42-.81-.73-.12-1.46,.2-1.81,.81-.15,.25-.05,.56,.22,.69,.08,.04,.18,.04,.27,.01,.14-.05,.25-.16,.28-.3,0-.13,.02-.26,.04-.39,.09-.31,.4-.53,.74-.53,.35,0,.66,.21,.76,.51,.05,.21,.07,.43,.06,.64,0,.08-.06,.15-.14,.19-.63,.23-1.25,.51-1.83,.84-.31,.14-.54,.39-.63,.7-.1,.31-.05,.63,.13,.91,.18,.27,.47,.46,.81,.52,.34,.06,.68-.01,.96-.21,.18-.09,.36-.2,.52-.33,.03-.02,.07-.04,.11-.05,.02,0,.04,0,.05,0,.04,.03,.06,.07,.08,.11,.08,.21,.27,.36,.51,.41,.34,.02,.67-.12,.88-.37,.07-.06,.14-.13,.21-.2,.06-.06,.08-.13,.07-.21,0-.02-.03-.04-.05-.03-.04,0-.08,.02-.11,.04-.06,.05-.12,.09-.18,.13-.04,.03-.08,.04-.13,.04h0Zm-2.95-.49c-.08-.27,0-.55,.2-.76,.4-.31,.85-.56,1.34-.73l.07-.02s.07,.02,.08,.05l.03,.16c0,.38,0,.75-.01,1.13,0,.09,0,.18-.05,.27-.02,.04-.04,.07-.07,.1-.04,.04-.08,.07-.13,.1-.14,.08-.29,.15-.45,.22-.15,.08-.32,.1-.48,.06-.25-.13-.43-.34-.52-.6h0Zm-1.75-1.77c0-.51,0-1.02,0-1.53,0-.07-.05-.13-.11-.15-.06-.01-.13,0-.19,.01-.4,.14-.79,.28-1.19,.43-.06,.02-.08,.08-.06,.13,.02,.04,.05,.06,.1,.06,.03,0,.07,0,.1,0,.05,0,.1-.01,.14,0,.11,.03,.2,.1,.24,.19,.14,.32,.19,.67,.16,1.01,.01,.69,0,1.37-.04,2.06-.07,.25-.28,.45-.56,.51-.04,.01-.08,.03-.11,.05,0,0-.01,.02-.01,.03,0,.01,0,.02,.02,.03,.03,.02,.07,.04,.12,.04,.67,.01,1.34,.01,2.01,0,.04,0,.08-.01,.12-.04,0,0,.02-.02,.02-.03,0-.01,0-.02-.02-.03-.03-.03-.07-.05-.11-.06-.2-.06-.38-.19-.48-.36-.11-.53-.15-1.07-.11-1.61v-.74h0Zm6.73,.15c0-.19,0-.37,.03-.56,.03-.15,.13-.29,.28-.37,.33-.29,.81-.38,1.24-.25,.14,.06,.24,.18,.28,.32,.12,.62,.16,1.26,.12,1.89,0,.36,0,.73-.01,1.09-.08,.21-.26,.37-.49,.42-.06,.02-.12,.03-.18,.05l-.04,.03s-.02,.02-.02,.03,0,.02,.02,.03c.03,.02,.07,.04,.12,.04,.59,.01,1.18,.01,1.77,0,.11,0,.22,0,.33-.02,.01,0,.02-.01,.03-.02,0-.01,0-.02,0-.04-.01-.04-.04-.07-.08-.09-.24-.08-.43-.26-.49-.5,0-.93-.04-1.87-.11-2.8-.03-.27-.14-.53-.32-.74-.16-.18-.38-.31-.63-.34-.58-.03-1.14,.18-1.54,.56l-.13,.1s-.05,.02-.08,.01c-.03,0-.05-.03-.06-.05l-.02-.07c0-.1,0-.21-.01-.31v-.1c-.05-.11-.16-.17-.28-.14-.13,.02-.25,.05-.37,.11-.31,.12-.62,.23-.93,.34-.05,.02-.07,.07-.06,.12,.01,.05,.06,.08,.11,.07h.08c.05,0,.1-.01,.16-.02,.14,0,.26,.09,.3,.21,.08,.23,.11,.46,.09,.7,.01,.79,0,1.57-.03,2.36-.04,.19-.17,.34-.35,.43-.08,.05-.15,.1-.22,.16,0,0,0,.01,0,.02,0,0,0,.01,.01,.01,.05,.02,.1,.03,.15,.03,.54,0,1.08,.01,1.61,0,.11,0,.22,0,.33-.02,.03,0,.06-.03,.07-.05,0-.02,0-.04-.01-.05-.08-.04-.17-.08-.25-.11-.06-.03-.12-.06-.18-.09-.06-.03-.11-.07-.13-.13-.05-.12-.07-.24-.06-.37-.02-.63-.03-1.27-.02-1.9h0Zm-6.56-4.75c.35,.13,.61,.41,.7,.76,.09,.34,0,.7-.24,.97-.04,.05-.07,.1-.1,.16,0,.02,0,.03,0,.05,0,.01,.02,.02,.04,.01,.5-.32,.7-.92,.48-1.45-.14-.32-.42-.57-.76-.69s-.73-.1-1.06,.06c-.01,0-.02,.02-.02,.04,0,.01,0,.02,.01,.03,.04,.02,.09,.02,.14,.02,.08-.01,.15-.03,.23-.04,.2,0,.4,.03,.59,.11h0Zm.23-1.86c-.08,.03-.17,.06-.24,.1-.01,0-.02,.02-.02,.03,0,.01,0,.02,.02,.03,.05,.02,.1,.03,.16,.03,.84-.11,1.66,.25,2.12,.91,.45,.66,.45,1.51,0,2.18l-.1,.17s0,.01,0,.02c0,0,0,.01,.02,.01,.02,0,.04,0,.06-.01,.69-.64,.85-1.64,.38-2.44-.46-.8-1.44-1.22-2.39-1.04h0Zm-.62,2.47c-.23-.09-.49-.02-.62,.18-.13,.19-.09,.45,.1,.6,.19,.15,.46,.15,.65,0,.18-.15,.22-.41,.09-.6-.06-.07-.13-.13-.22-.17h0Zm1.06-1.36c.81,.36,1.21,1.22,.93,2.01-.01,.04-.01,.08,0,.12,0,0,0,0,.01,0,0,0,.01,0,.02,0,.02-.01,.03-.03,.04-.05,.29-.57,.21-1.25-.21-1.75-.42-.5-1.11-.73-1.77-.6,0,0-.01,0-.01,.02s0,.01,.01,.02c.08,.02,.15,.03,.23,.03,.26,.01,.52,.08,.75,.19h0Zm-22.96,10.58l.57-1.45h.86v.06h-.07c-.06,0-.11,.01-.15,.03-.03,.02-.05,.04-.06,.08-.01,.03-.02,.09-.02,.2v1.45c0,.11,0,.18,.02,.21,.01,.03,.03,.05,.07,.07,.04,.02,.08,.03,.14,.03h.07v.06h-1.1v-.06h.07c.06,0,.11-.01,.15-.03,.03-.02,.05-.04,.06-.08,.01-.03,.02-.09,.02-.2v-1.62l-.81,2h-.04l-.82-1.99v1.54c0,.11,0,.17,0,.2,.01,.05,.04,.1,.09,.13,.05,.03,.12,.05,.21,.05v.06h-.72v-.06h.02s.09,0,.13-.02c.04-.02,.07-.04,.09-.07,.02-.03,.04-.07,.05-.12,0-.01,0-.07,0-.16v-1.39c0-.11,0-.18-.02-.21-.01-.03-.03-.05-.07-.07-.04-.02-.08-.03-.14-.03h-.07v-.06h.86l.59,1.45h0Zm2.66-.81c.13,0,.24,.03,.35,.1s.19,.16,.25,.29c.06,.13,.09,.26,.09,.41,0,.21-.05,.39-.16,.54-.13,.17-.3,.26-.53,.26s-.39-.08-.51-.24c-.12-.16-.18-.34-.18-.55s.06-.41,.18-.57c.12-.16,.29-.24,.5-.24h0Zm0,.11c-.05,0-.1,.02-.14,.06-.04,.04-.06,.12-.07,.25-.01,.12-.02,.29-.02,.51,0,.12,0,.22,.02,.32,.01,.08,.04,.13,.07,.17,.04,.04,.08,.06,.13,.06s.09-.01,.12-.04c.04-.04,.07-.09,.08-.15,.02-.1,.03-.31,.03-.62,0-.18,0-.31-.03-.38-.02-.07-.05-.12-.09-.15-.03-.02-.06-.03-.11-.03h0Zm1.87-.07v.2c.07-.08,.15-.15,.22-.18,.07-.04,.14-.06,.22-.06,.09,0,.17,.03,.24,.08,.06,.05,.1,.12,.12,.2,.02,.06,.02,.18,.02,.35v.59c0,.12,.01,.19,.03,.22,.02,.03,.06,.05,.13,.05v.06h-.74v-.06c.06,0,.09-.03,.12-.07,.02-.03,.02-.09,.02-.2v-.67c0-.12,0-.2-.01-.23,0-.03-.03-.06-.05-.08-.02-.02-.05-.03-.07-.03-.09,0-.17,.07-.25,.2v.81c0,.11,.01,.18,.03,.21,.02,.03,.06,.05,.11,.06v.06h-.74v-.06c.06,0,.11-.03,.13-.06,.02-.02,.03-.09,.03-.21v-.85c0-.11-.01-.19-.03-.21-.02-.03-.06-.05-.13-.05v-.06h.59Zm1.91-.73c.07,0,.12,.02,.17,.07,.05,.05,.07,.11,.07,.18s-.02,.13-.07,.18c-.05,.05-.1,.07-.17,.07s-.12-.02-.17-.07c-.05-.05-.07-.11-.07-.18s.02-.13,.07-.18c.05-.05,.1-.07,.17-.07h0Zm.22,.73v1.2c0,.11,.01,.18,.04,.2,.02,.03,.07,.05,.14,.05v.06h-.79v-.06c.06,0,.11-.02,.14-.06,.02-.02,.03-.09,.03-.2v-.88c0-.11-.01-.17-.04-.2-.02-.03-.07-.05-.14-.05v-.06h.61Zm1.27-.55v.55h.35v.16h-.35v.93c0,.09,0,.14,.01,.17,0,.03,.02,.05,.04,.06,.02,.02,.04,.02,.05,.02,.07,0,.13-.05,.19-.16l.05,.04c-.08,.21-.22,.31-.41,.31-.09,0-.17-.03-.23-.08-.06-.05-.1-.11-.12-.18-.01-.04-.02-.14-.02-.3v-.82h-.19v-.06c.13-.1,.24-.2,.33-.3,.09-.11,.17-.22,.24-.35h.05Zm1.55,.51c.13,0,.24,.03,.35,.1,.11,.07,.19,.16,.25,.29,.06,.13,.09,.26,.09,.41,0,.21-.05,.39-.16,.54-.13,.17-.3,.26-.53,.26s-.39-.08-.51-.24c-.12-.16-.18-.34-.18-.55s.06-.41,.18-.57c.12-.16,.29-.24,.5-.24h0Zm0,.11c-.05,0-.1,.02-.14,.06-.04,.04-.06,.12-.07,.25-.01,.12-.02,.29-.02,.51,0,.12,0,.22,.02,.32,.01,.08,.04,.13,.07,.17,.04,.04,.08,.06,.13,.06s.09-.01,.12-.04c.04-.04,.07-.09,.08-.15,.02-.1,.03-.31,.03-.62,0-.18,0-.31-.03-.38-.02-.07-.05-.12-.09-.15-.03-.02-.06-.03-.11-.03h0Zm1.88-.07v.34c.1-.16,.18-.26,.25-.31,.07-.05,.14-.08,.21-.08,.06,0,.1,.02,.14,.06,.03,.04,.05,.09,.05,.16,0,.07-.02,.13-.05,.17-.03,.04-.07,.06-.12,.06-.06,0-.1-.02-.14-.05-.04-.04-.06-.06-.07-.06-.01,0-.02,0-.04,0-.03,0-.06,.01-.09,.04-.04,.04-.07,.09-.1,.16-.03,.1-.05,.22-.05,.35v.44c0,.06,0,.1,.01,.12,.01,.03,.03,.05,.06,.06,.02,.01,.07,.02,.12,.03v.06h-.79v-.06c.06,0,.11-.02,.13-.05,.02-.03,.03-.11,.03-.24v-.84c0-.09,0-.14-.01-.16-.01-.03-.03-.05-.05-.07-.02-.01-.05-.02-.1-.03v-.06h.6Zm1.54-.73c.07,0,.12,.02,.17,.07,.05,.05,.07,.11,.07,.18s-.02,.13-.07,.18c-.05,.05-.1,.07-.17,.07s-.12-.02-.17-.07c-.05-.05-.07-.11-.07-.18s.02-.13,.07-.18c.05-.05,.1-.07,.17-.07h0Zm.22,.73v1.2c0,.11,.01,.18,.04,.2,.02,.03,.07,.05,.14,.05v.06h-.79v-.06c.06,0,.11-.02,.14-.06,.02-.02,.03-.09,.03-.2v-.88c0-.11-.01-.17-.04-.2-.02-.03-.07-.05-.14-.05v-.06h.61Zm1.29,0v.2c.07-.08,.15-.15,.22-.18,.07-.04,.14-.06,.22-.06,.09,0,.17,.03,.24,.08,.06,.05,.1,.12,.12,.2,.02,.06,.02,.18,.02,.35v.59c0,.12,.01,.19,.03,.22,.02,.03,.06,.05,.13,.05v.06h-.74v-.06c.06,0,.09-.03,.12-.07,.02-.03,.02-.09,.02-.2v-.67c0-.12,0-.2-.01-.23,0-.03-.03-.06-.05-.08-.02-.02-.05-.03-.07-.03-.09,0-.17,.07-.25,.2v.81c0,.11,.01,.18,.03,.21,.02,.03,.06,.05,.11,.06v.06h-.74v-.06c.06,0,.11-.03,.13-.06,.02-.02,.03-.09,.03-.21v-.85c0-.11-.01-.19-.03-.21-.02-.03-.06-.05-.13-.05v-.06h.59Zm2.49,.02h.49v.18h-.28c.05,.05,.09,.1,.11,.14,.02,.06,.04,.12,.04,.18,0,.11-.03,.2-.09,.28-.06,.08-.14,.14-.24,.19-.1,.04-.19,.07-.26,.07,0,0-.07,0-.19,0-.05,0-.09,.02-.12,.05-.03,.03-.05,.07-.05,.11,0,.04,.01,.07,.04,.1,.03,.02,.08,.04,.14,.04h.27c.22,0,.37,.02,.45,.07,.12,.07,.18,.18,.18,.32,0,.09-.03,.18-.08,.25-.05,.07-.13,.13-.21,.17-.13,.05-.29,.08-.46,.08-.13,0-.25-.01-.36-.04-.11-.03-.19-.06-.23-.11-.05-.05-.07-.1-.07-.15s.02-.09,.05-.13c.04-.04,.1-.07,.2-.1-.14-.07-.2-.16-.2-.29,0-.07,.03-.15,.08-.22,.06-.07,.14-.13,.26-.18-.14-.05-.24-.12-.3-.21-.06-.09-.09-.19-.09-.3,0-.15,.06-.28,.17-.38,.12-.11,.27-.16,.45-.16,.1,0,.2,.02,.3,.06h0Zm-.27,.04c-.06,0-.11,.03-.15,.09-.04,.06-.06,.19-.06,.39,0,.16,.02,.27,.06,.33,.04,.06,.09,.09,.15,.09,.06,0,.11-.03,.16-.09,.04-.06,.06-.17,.06-.35,0-.19-.02-.32-.07-.39-.03-.05-.08-.08-.14-.08h0Zm-.09,1.68c-.11,0-.18,0-.21,.03-.06,.03-.09,.08-.09,.14s.03,.1,.09,.15c.06,.04,.18,.07,.35,.07,.14,0,.26-.02,.34-.06,.08-.04,.12-.1,.12-.17,0-.03,0-.05-.02-.07-.03-.03-.07-.05-.13-.07-.06-.01-.21-.02-.45-.02h0Zm3.97-2.47l.02,.73h-.06c-.03-.18-.1-.33-.22-.44-.12-.11-.25-.17-.38-.17-.11,0-.19,.03-.25,.09-.06,.06-.09,.13-.09,.2,0,.05,.01,.09,.03,.13,.03,.05,.08,.1,.15,.15,.05,.04,.16,.1,.34,.19,.25,.13,.41,.25,.5,.36,.09,.11,.13,.24,.13,.38,0,.18-.07,.34-.21,.47-.14,.13-.31,.2-.53,.2-.07,0-.13,0-.19-.02-.06-.01-.13-.04-.22-.08-.05-.02-.09-.03-.12-.03-.03,0-.06,.01-.09,.03-.03,.02-.05,.05-.07,.1h-.06v-.83h.06c.05,.23,.13,.41,.26,.53,.13,.12,.27,.18,.42,.18,.12,0,.21-.03,.28-.1,.07-.07,.1-.14,.1-.23,0-.05-.01-.1-.04-.15-.03-.05-.07-.09-.12-.14-.05-.04-.15-.1-.29-.17-.19-.1-.33-.18-.41-.25-.08-.07-.15-.15-.19-.23-.05-.09-.07-.18-.07-.28,0-.17,.06-.32,.19-.45,.12-.12,.28-.18,.47-.18,.07,0,.14,0,.2,.03,.05,.01,.11,.04,.18,.07,.07,.04,.12,.05,.15,.05s.05,0,.06-.03c.02-.02,.03-.06,.04-.12h.05Zm1.99,1.43h-.8c0,.2,.06,.36,.15,.48,.07,.09,.16,.13,.26,.13,.06,0,.12-.02,.17-.05,.05-.04,.11-.1,.16-.19l.05,.04c-.08,.17-.17,.29-.26,.35-.1,.07-.21,.1-.33,.1-.22,0-.38-.09-.49-.26-.09-.14-.13-.31-.13-.52,0-.25,.07-.45,.2-.6,.13-.15,.29-.22,.46-.22,.15,0,.28,.06,.38,.19,.11,.13,.17,.31,.18,.56h0Zm-.38-.11c0-.17,0-.29-.03-.36-.02-.06-.05-.11-.08-.15-.02-.02-.05-.03-.09-.03-.05,0-.1,.03-.13,.08-.06,.1-.09,.23-.09,.39v.06h.42Zm1.55-.59v.34c.1-.16,.18-.26,.25-.31s.14-.08,.21-.08c.06,0,.1,.02,.14,.06,.03,.04,.05,.09,.05,.16,0,.07-.02,.13-.05,.17-.03,.04-.07,.06-.12,.06-.06,0-.1-.02-.14-.05-.04-.04-.06-.06-.07-.06-.01,0-.02,0-.04,0-.03,0-.06,.01-.09,.04-.04,.04-.07,.09-.1,.16-.03,.1-.05,.22-.05,.35v.44c0,.06,0,.1,.01,.12,.01,.03,.03,.05,.06,.06,.02,.01,.07,.02,.12,.03v.06h-.79v-.06c.06,0,.11-.02,.13-.05,.02-.03,.03-.11,.03-.24v-.84c0-.09,0-.14-.01-.16-.01-.03-.03-.05-.05-.07-.02-.01-.05-.02-.1-.03v-.06h.6Zm1.85,1.56l-.49-1.17c-.06-.14-.11-.23-.14-.27-.02-.03-.06-.05-.11-.06v-.06h.78v.06s-.08,0-.1,.03c-.02,.02-.04,.05-.04,.08,0,.04,.02,.11,.07,.22l.24,.57,.19-.49c.06-.14,.08-.24,.08-.3,0-.03-.01-.06-.04-.08s-.06-.03-.12-.03v-.06h.48v.06s-.08,.02-.11,.05c-.03,.03-.07,.11-.13,.26l-.49,1.19h-.07Zm1.67-2.29c.07,0,.12,.02,.17,.07,.05,.05,.07,.11,.07,.18s-.02,.13-.07,.18c-.05,.05-.1,.07-.17,.07s-.12-.02-.17-.07c-.05-.05-.07-.11-.07-.18s.02-.13,.07-.18c.05-.05,.1-.07,.17-.07h0Zm.22,.73v1.2c0,.11,.01,.18,.04,.2,.02,.03,.07,.05,.14,.05v.06h-.79v-.06c.06,0,.11-.02,.14-.06,.02-.02,.03-.09,.03-.2v-.88c0-.11-.01-.17-.04-.2-.02-.03-.07-.05-.14-.05v-.06h.61Zm1.88,1.12l.05,.04c-.07,.13-.15,.23-.26,.3-.1,.07-.21,.1-.33,.1-.19,0-.35-.08-.47-.23-.12-.15-.17-.33-.17-.55s.05-.39,.16-.54c.13-.19,.3-.28,.53-.28,.15,0,.27,.04,.36,.12,.09,.08,.13,.17,.13,.26,0,.06-.02,.11-.05,.15-.04,.04-.08,.05-.14,.05-.06,0-.11-.02-.15-.06-.04-.04-.06-.12-.07-.22,0-.07-.02-.12-.05-.14-.02-.03-.05-.04-.08-.04-.05,0-.09,.03-.13,.08-.05,.08-.08,.21-.08,.38,0,.14,.02,.28,.07,.41,.04,.13,.1,.23,.18,.29,.06,.05,.12,.07,.2,.07,.05,0,.1-.01,.15-.04,.05-.02,.1-.07,.16-.14h0Zm1.84-.42h-.8c0,.2,.06,.36,.15,.48,.07,.09,.16,.13,.26,.13,.06,0,.12-.02,.17-.05,.05-.04,.11-.1,.16-.19l.05,.04c-.08,.17-.17,.29-.26,.35-.1,.07-.21,.1-.33,.1-.22,0-.38-.09-.49-.26-.09-.14-.13-.31-.13-.52,0-.25,.07-.45,.2-.6,.13-.15,.29-.22,.46-.22,.15,0,.28,.06,.38,.19,.11,.13,.17,.31,.18,.56h0Zm-.38-.11c0-.17,0-.29-.03-.36-.02-.06-.05-.11-.08-.15-.02-.02-.05-.03-.09-.03-.05,0-.1,.03-.13,.08-.06,.1-.09,.23-.09,.39v.06h.42Zm1.86-.64l.02,.52h-.05c-.06-.15-.13-.26-.2-.31-.07-.06-.14-.08-.2-.08-.04,0-.08,.01-.11,.04s-.05,.06-.05,.1c0,.03,.01,.06,.03,.08,.03,.04,.13,.12,.28,.23,.15,.11,.25,.2,.3,.27,.05,.08,.07,.16,.07,.25,0,.08-.02,.17-.06,.25s-.1,.14-.17,.19c-.07,.04-.16,.06-.24,.06-.07,0-.16-.02-.28-.07-.03-.01-.05-.02-.06-.02-.03,0-.06,.03-.09,.08h-.05l-.02-.54h.05c.05,.14,.11,.25,.19,.32,.08,.07,.16,.11,.23,.11,.05,0,.09-.02,.12-.05,.03-.03,.05-.07,.05-.12,0-.05-.02-.1-.05-.13-.03-.04-.1-.09-.21-.17-.16-.11-.26-.2-.31-.26-.07-.09-.1-.19-.1-.29,0-.12,.04-.22,.12-.32,.08-.09,.19-.14,.34-.14,.08,0,.16,.02,.23,.06,.03,.02,.05,.02,.07,.02,.02,0,.03,0,.05-.01,.01,0,.03-.03,.05-.07h.05Z"/><g><path class="cls-1" d="M24.23,72.27v-10.57h1.91v4.1h5.96v-4.1h1.92v10.57h-1.92v-4.55h-5.96v4.55h-1.91Z"/><path class="cls-1" d="M37.62,72.27v-7.61h6.05v1.3h-4.67v1.7h2.73v1.3h-2.73v1.89h4.73v1.43h-6.1Z"/><path class="cls-1" d="M45.13,72.27l3.34-7.61h1.32l3.39,7.61h-1.54l-.71-1.66h-3.74l-.69,1.66h-1.37Zm2.64-3.04h2.59l-1.27-3.1-1.31,3.1Z"/><path class="cls-1" d="M56.67,72.27l-3.41-7.61h1.57l2.39,5.5,2.28-5.5h1.37l-3.25,7.61h-.95Z"/><path class="cls-1" d="M62.47,72.27v-7.61h6.05v1.3h-4.67v1.7h2.73v1.3h-2.73v1.89h4.73v1.43h-6.1Z"/><path class="cls-1" d="M71.1,72.27v-7.61h.94l4.16,4.49c.14,.15,.27,.29,.37,.42,.11,.13,.21,.27,.3,.41-.02-.43-.04-.73-.04-.91,0-.18-.01-.31-.01-.41v-4h1.23v7.61h-.94l-4.34-4.7c-.1-.12-.2-.23-.27-.32-.08-.1-.15-.19-.22-.3,.02,.24,.03,.46,.04,.67s.01,.39,.01,.54v4.11h-1.23Z"/><path class="cls-1" d="M81.06,72.27v-7.61h1.37v6.18h4.43v1.43h-5.81Z"/><path class="cls-1" d="M89.05,72.27v-3.41l-3.07-4.21h1.83l2.03,2.92,2.03-2.92h1.61l-3.06,4.16v3.45h-1.39Z"/><path class="cls-1" d="M100.11,72.27v-10.57h1.91v4.1h5.96v-4.1h1.92v10.57h-1.92v-4.55h-5.96v4.55h-1.91Z"/><path class="cls-1" d="M113.38,66.45c0-.69,.1-1.16,.3-1.42,.2-.25,.59-.38,1.16-.38h4.35c.57,0,.96,.13,1.16,.38,.2,.25,.3,.73,.3,1.42v4.01c0,.7-.1,1.17-.3,1.42-.2,.25-.59,.38-1.16,.38h-4.35c-.57,0-.96-.13-1.16-.38-.2-.25-.3-.73-.3-1.42v-4.01Zm1.37,4.38h4.53v-4.82h-4.53v4.82Z"/><path class="cls-1" d="M123.54,72.27v-7.61h1.11l2.78,4.6,2.72-4.6h1.1v7.61h-1.27v-4.7c0-.09,0-.21,.01-.35,0-.14,.02-.3,.04-.47-.07,.2-.14,.36-.2,.49-.06,.13-.11,.23-.15,.31l-2.22,3.8h-.27l-2.22-3.82c-.08-.14-.15-.28-.21-.41-.06-.13-.11-.25-.14-.37,.01,.16,.02,.3,.03,.43,0,.13,0,.25,0,.37v4.7h-1.11Z"/><path class="cls-1" d="M134.14,72.27v-7.61h6.05v1.3h-4.67v1.7h2.73v1.3h-2.73v1.89h4.73v1.43h-6.1Z"/></g><g><path class="cls-1" d="M56.36,77.5h-5.34v2.26h5.09c.8,0,1.34,.18,1.62,.53,.28,.35,.42,1.01,.42,1.96v1.44c0,.96-.14,1.61-.42,1.96-.28,.35-.82,.53-1.62,.53h-5.04c-.8,0-1.34-.18-1.62-.53-.28-.35-.42-1.01-.42-1.96v-.29l1.68-.45v1.24h5.77v-2.4h-5.09c-.79,0-1.33-.18-1.61-.53-.28-.35-.42-1.01-.42-1.96v-1.16c0-.96,.14-1.61,.42-1.96,.28-.35,.81-.53,1.61-.53h4.63c.77,0,1.3,.17,1.59,.51s.44,.94,.44,1.8v.22l-1.68,.51v-1.19Z"/><path class="cls-1" d="M61.5,86.18v-7.61h6.05v1.3h-4.67v1.7h2.73v1.3h-2.73v1.89h4.73v1.43h-6.1Z"/><path class="cls-1" d="M75.1,79.93h-3.7v4.82h3.7v-1.63l1.37,.37v.9c0,.7-.1,1.17-.3,1.42-.2,.25-.59,.38-1.16,.38h-3.53c-.57,0-.96-.13-1.16-.38-.2-.25-.3-.73-.3-1.42v-4.01c0-.69,.1-1.16,.3-1.42,.2-.25,.59-.38,1.16-.38h3.53c.57,0,.96,.13,1.16,.38,.2,.25,.3,.73,.3,1.42v.72l-1.37,.28v-1.44Z"/><path class="cls-1" d="M80.68,78.57v6.18h3.92v-6.18h1.37v5.81c0,.7-.1,1.17-.3,1.42-.2,.25-.59,.38-1.16,.38h-3.73c-.57,0-.96-.13-1.16-.38s-.3-.73-.3-1.42v-5.81h1.37Z"/><path class="cls-1" d="M88.99,86.18v-7.61h5.05c.47,0,.81,.12,1.02,.35,.21,.23,.32,.61,.32,1.13v1.79c0,.51-.11,.89-.32,1.12-.21,.24-.55,.35-1.02,.35h-.77l2.73,2.87h-1.97l-2.38-2.87h-1.3v2.87h-1.35Zm4.44-6.29h-3.09v2.12h3.09c.24,0,.4-.04,.49-.13,.09-.09,.13-.25,.13-.47v-.91c0-.22-.04-.38-.13-.46-.09-.09-.25-.13-.49-.13Z"/><path class="cls-1" d="M98.16,86.18v-7.61h1.37v7.61h-1.37Z"/><path class="cls-1" d="M105.3,79.93v6.25h-1.37v-6.25h-2.71v-1.36h6.81v1.36h-2.72Z"/><path class="cls-1" d="M111.35,86.18v-3.41l-3.07-4.21h1.83l2.03,2.92,2.03-2.92h1.61l-3.06,4.16v3.45h-1.39Z"/></g><g><path class="cls-1" d="M67.22,115.45c.18,0,.31,.04,.37,.11,.06,.07,.1,.21,.1,.4v.24c0,.15-.03,.27-.09,.34-.06,.08-.16,.13-.3,.17,.15,.02,.26,.07,.33,.16,.07,.08,.11,.21,.11,.36v.28c0,.21-.04,.36-.11,.44-.07,.08-.2,.12-.39,.12h-1.3c-.18,0-.31-.04-.38-.12s-.11-.23-.11-.44v-.28c0-.16,.04-.28,.11-.36,.07-.08,.18-.14,.33-.16-.14-.04-.24-.09-.3-.17s-.09-.19-.09-.34v-.24c0-.2,.03-.33,.1-.4,.06-.07,.19-.11,.37-.11h1.27Zm-.11,1.48h-1.04c-.08,0-.13,.02-.15,.05-.03,.03-.04,.1-.04,.19v.19c0,.1,.01,.16,.04,.19,.02,.03,.08,.05,.16,.05h1.04c.08,0,.13-.02,.15-.05,.03-.03,.04-.09,.04-.19v-.19c0-.1-.01-.16-.04-.19-.03-.03-.08-.05-.15-.05Zm-.04-1.04h-.95c-.08,0-.13,.02-.16,.05-.03,.03-.04,.1-.04,.19v.13c0,.09,.01,.16,.04,.19,.03,.03,.08,.05,.16,.05h.95c.08,0,.13-.02,.15-.05,.03-.03,.04-.09,.04-.19v-.13c0-.1-.01-.16-.04-.19-.03-.03-.08-.05-.15-.05Z"/><path class="cls-1" d="M70.27,115.45c.18,0,.31,.04,.37,.11,.06,.07,.1,.21,.1,.4v.24c0,.15-.03,.27-.09,.34-.06,.08-.16,.13-.3,.17,.15,.02,.26,.07,.33,.16,.07,.08,.11,.21,.11,.36v.28c0,.21-.04,.36-.11,.44-.07,.08-.2,.12-.39,.12h-1.3c-.18,0-.31-.04-.38-.12s-.11-.23-.11-.44v-.28c0-.16,.04-.28,.11-.36,.07-.08,.18-.14,.33-.16-.14-.04-.24-.09-.3-.17s-.09-.19-.09-.34v-.24c0-.2,.03-.33,.1-.4,.06-.07,.19-.11,.37-.11h1.27Zm-.11,1.48h-1.04c-.08,0-.13,.02-.15,.05-.03,.03-.04,.1-.04,.19v.19c0,.1,.01,.16,.04,.19,.02,.03,.08,.05,.16,.05h1.04c.08,0,.13-.02,.15-.05,.03-.03,.04-.09,.04-.19v-.19c0-.1-.01-.16-.04-.19-.03-.03-.08-.05-.15-.05Zm-.04-1.04h-.95c-.08,0-.13,.02-.16,.05-.03,.03-.04,.1-.04,.19v.13c0,.09,.01,.16,.04,.19,.03,.03,.08,.05,.16,.05h.95c.08,0,.13-.02,.15-.05,.03-.03,.04-.09,.04-.19v-.13c0-.1-.01-.16-.04-.19-.03-.03-.08-.05-.15-.05Z"/><path class="cls-1" d="M73.31,115.45c.18,0,.31,.04,.37,.11,.06,.07,.1,.21,.1,.4v.24c0,.15-.03,.27-.09,.34-.06,.08-.16,.13-.3,.17,.15,.02,.26,.07,.33,.16,.07,.08,.11,.21,.11,.36v.28c0,.21-.04,.36-.11,.44-.07,.08-.2,.12-.39,.12h-1.3c-.18,0-.31-.04-.38-.12s-.11-.23-.11-.44v-.28c0-.16,.04-.28,.11-.36,.07-.08,.18-.14,.33-.16-.14-.04-.24-.09-.3-.17s-.09-.19-.09-.34v-.24c0-.2,.03-.33,.1-.4,.06-.07,.19-.11,.37-.11h1.27Zm-.11,1.48h-1.04c-.08,0-.13,.02-.15,.05-.03,.03-.04,.1-.04,.19v.19c0,.1,.01,.16,.04,.19,.02,.03,.08,.05,.16,.05h1.04c.08,0,.13-.02,.15-.05,.03-.03,.04-.09,.04-.19v-.19c0-.1-.01-.16-.04-.19-.03-.03-.08-.05-.15-.05Zm-.04-1.04h-.95c-.08,0-.13,.02-.16,.05-.03,.03-.04,.1-.04,.19v.13c0,.09,.01,.16,.04,.19,.03,.03,.08,.05,.16,.05h.95c.08,0,.13-.02,.15-.05,.03-.03,.04-.09,.04-.19v-.13c0-.1-.01-.16-.04-.19-.03-.03-.08-.05-.15-.05Z"/><path class="cls-1" d="M74.99,117.28h.07s.06,.01,.07,.04c.01,.03,.02,.07,.02,.15v.41c0,.08,0,.13-.02,.15-.02,.02-.06,.03-.14,.03h-.35s-.06-.01-.07-.04c-.01-.03-.02-.08-.02-.15v-.41c0-.08,0-.13,.02-.15,.02-.02,.06-.03,.14-.03h.28Z"/><path class="cls-1" d="M76.02,116.9l.12-1.45h1.76l-.03,.45h-1.42l-.05,.51c.17-.02,.33-.04,.46-.05s.25-.01,.36-.01c.34,0,.59,.07,.76,.22,.17,.15,.25,.37,.25,.67s-.09,.53-.26,.67c-.18,.14-.46,.21-.85,.21-.21,0-.39,0-.56-.03-.17-.02-.31-.04-.42-.08l-.1-.51c.2,.05,.39,.08,.56,.1,.18,.02,.35,.03,.51,.03,.26,0,.43-.03,.54-.1,.1-.07,.16-.17,.16-.33,0-.15-.05-.25-.15-.31-.1-.06-.27-.09-.51-.09-.15,0-.32,0-.51,.03-.18,.02-.38,.04-.59,.08Z"/><path class="cls-1" d="M79.06,116.9l.12-1.45h1.76l-.03,.45h-1.42l-.05,.51c.17-.02,.33-.04,.46-.05s.25-.01,.36-.01c.34,0,.59,.07,.76,.22,.17,.15,.25,.37,.25,.67s-.09,.53-.26,.67c-.18,.14-.46,.21-.85,.21-.21,0-.39,0-.56-.03-.17-.02-.31-.04-.42-.08l-.1-.51c.2,.05,.39,.08,.56,.1,.18,.02,.35,.03,.51,.03,.26,0,.43-.03,.54-.1,.1-.07,.16-.17,.16-.33,0-.15-.05-.25-.15-.31-.1-.06-.27-.09-.51-.09-.15,0-.32,0-.51,.03-.18,.02-.38,.04-.59,.08Z"/><path class="cls-1" d="M83.75,115.45c.18,0,.31,.04,.37,.11,.06,.07,.1,.21,.1,.4v.24c0,.15-.03,.27-.09,.34-.06,.08-.16,.13-.3,.17,.15,.02,.26,.07,.33,.16,.07,.08,.11,.21,.11,.36v.28c0,.21-.04,.36-.11,.44-.07,.08-.2,.12-.39,.12h-1.3c-.18,0-.31-.04-.38-.12-.07-.08-.11-.23-.11-.44v-.28c0-.16,.04-.28,.11-.36,.07-.08,.18-.14,.33-.16-.14-.04-.24-.09-.3-.17-.06-.08-.09-.19-.09-.34v-.24c0-.2,.03-.33,.1-.4,.06-.07,.19-.11,.37-.11h1.27Zm-.11,1.48h-1.04c-.08,0-.13,.02-.15,.05-.03,.03-.04,.1-.04,.19v.19c0,.1,.01,.16,.04,.19,.02,.03,.08,.05,.16,.05h1.04c.08,0,.13-.02,.15-.05,.02-.03,.04-.09,.04-.19v-.19c0-.1-.01-.16-.04-.19-.03-.03-.08-.05-.15-.05Zm-.04-1.04h-.95c-.08,0-.13,.02-.16,.05-.03,.03-.04,.1-.04,.19v.13c0,.09,.01,.16,.04,.19,.03,.03,.08,.05,.16,.05h.95c.08,0,.13-.02,.15-.05,.03-.03,.04-.09,.04-.19v-.13c0-.1-.01-.16-.04-.19-.03-.03-.08-.05-.15-.05Z"/><path class="cls-1" d="M85.43,117.28h.07s.06,.01,.07,.04c.01,.03,.02,.07,.02,.15v.41c0,.08,0,.13-.02,.15-.02,.02-.06,.03-.14,.03h-.35s-.06-.01-.07-.04c-.01-.03-.02-.08-.02-.15v-.41c0-.08,0-.13,.02-.15,.02-.02,.06-.03,.14-.03h.28Z"/><path class="cls-1" d="M88.12,117.03c-.15,.03-.29,.05-.44,.07s-.3,.02-.45,.02c-.33,0-.55-.05-.68-.15-.12-.1-.18-.27-.18-.53v-.35c0-.22,.06-.38,.17-.48s.29-.16,.53-.16h.86c.26,0,.43,.06,.53,.17,.09,.12,.14,.33,.14,.63v.34c0,.49-.13,.86-.39,1.13s-.63,.4-1.11,.4c-.04,0-.07,0-.09,0-.02,0-.04,0-.06,0l-.28-.42h.13c.43,0,.75-.05,.94-.15,.19-.1,.32-.28,.39-.52Zm.02-.4s0-.06,0-.09c0-.03,0-.05,0-.07,0-.26-.03-.42-.08-.48-.05-.06-.17-.09-.35-.09h-.56c-.14,0-.24,.02-.29,.07-.05,.05-.08,.13-.08,.26v.15c0,.13,.03,.21,.09,.26,.06,.04,.18,.07,.36,.07,.13,0,.27,0,.42-.02,.15-.01,.31-.03,.48-.05Z"/><path class="cls-1" d="M91.16,117.03c-.15,.03-.29,.05-.44,.07s-.3,.02-.45,.02c-.33,0-.55-.05-.68-.15-.12-.1-.18-.27-.18-.53v-.35c0-.22,.06-.38,.17-.48s.29-.16,.53-.16h.86c.26,0,.43,.06,.53,.17,.09,.12,.14,.33,.14,.63v.34c0,.49-.13,.86-.39,1.13s-.63,.4-1.11,.4c-.04,0-.07,0-.09,0-.02,0-.04,0-.06,0l-.28-.42h.13c.43,0,.75-.05,.94-.15,.19-.1,.32-.28,.39-.52Zm.02-.4s0-.06,0-.09c0-.03,0-.05,0-.07,0-.26-.03-.42-.08-.48-.05-.06-.17-.09-.35-.09h-.56c-.14,0-.24,.02-.29,.07-.05,.05-.08,.13-.08,.26v.15c0,.13,.03,.21,.09,.26,.06,.04,.18,.07,.36,.07,.13,0,.27,0,.42-.02,.15-.01,.31-.03,.48-.05Z"/><path class="cls-1" d="M93.42,118.07v-2.12h-.43v-.35l.86-.17v2.64h-.43Z"/><path class="cls-1" d="M96.47,118.07v-2.12h-.43v-.35l.86-.17v2.64h-.43Z"/></g><g><path class="cls-1" d="M53.52,92.94c.36,0,.6,.07,.72,.21,.12,.14,.19,.4,.19,.79v.46c0,.3-.06,.52-.17,.67-.11,.15-.31,.26-.59,.32,.29,.04,.51,.14,.64,.31,.14,.16,.21,.4,.21,.71v.54c0,.41-.07,.7-.21,.86-.14,.16-.39,.24-.75,.24h-2.53c-.36,0-.61-.08-.75-.23s-.21-.44-.21-.86v-.54c0-.31,.07-.54,.21-.71,.14-.17,.35-.27,.64-.31-.28-.07-.48-.18-.59-.33s-.17-.37-.17-.66v-.46c0-.38,.06-.64,.19-.79,.12-.14,.36-.21,.72-.21h2.47Zm-.22,2.89h-2.03c-.15,0-.25,.03-.3,.09s-.07,.19-.07,.38v.37c0,.19,.02,.31,.07,.37,.05,.06,.15,.09,.3,.09h2.03c.15,0,.25-.03,.3-.09,.05-.06,.07-.18,.07-.37v-.37c0-.19-.03-.32-.07-.38-.05-.06-.15-.09-.3-.09Zm-.09-2.02h-1.85c-.15,0-.25,.03-.31,.09-.05,.06-.08,.19-.08,.37v.26c0,.18,.03,.31,.08,.37,.05,.06,.15,.09,.31,.09h1.85c.15,0,.25-.03,.3-.09,.05-.06,.08-.18,.08-.37v-.26c0-.19-.03-.32-.08-.38-.05-.06-.15-.09-.3-.09Z"/><path class="cls-1" d="M57.38,98.13l2.13-4.32h-2.62v1.1l-.83-.19v-1.78h4.4v.82l-2.07,4.37h-1.01Z"/><path class="cls-1" d="M63.31,98.13l2.13-4.32h-2.62v1.1l-.83-.19v-1.78h4.4v.82l-2.07,4.37h-1.01Z"/><path class="cls-1" d="M68.65,96.51h.14c.07,0,.11,.02,.14,.07,.03,.05,.04,.15,.04,.29v.8c0,.15-.02,.25-.04,.3-.03,.05-.12,.07-.28,.07h-.69c-.07,0-.11-.03-.14-.08-.03-.05-.04-.15-.04-.29v-.8c0-.15,.02-.25,.04-.29s.12-.07,.28-.07h.55Z"/><path class="cls-1" d="M70.64,95.77l.22-2.83h3.42l-.07,.87h-2.76l-.09,.99c.34-.05,.64-.08,.9-.1,.26-.02,.49-.03,.71-.03,.65,0,1.14,.14,1.47,.43,.33,.29,.49,.72,.49,1.3s-.17,1.03-.51,1.3c-.34,.27-.9,.41-1.66,.41-.4,0-.76-.02-1.09-.05-.32-.04-.6-.09-.82-.15l-.2-.98c.39,.09,.75,.16,1.1,.2,.34,.04,.67,.07,.99,.07,.5,0,.85-.06,1.05-.19s.3-.34,.3-.64c0-.28-.1-.49-.3-.61-.2-.12-.53-.18-1-.18-.3,0-.63,.02-.99,.05s-.74,.09-1.15,.15Z"/><path class="cls-1" d="M79.76,92.94c.36,0,.6,.07,.72,.21,.12,.14,.19,.4,.19,.79v.46c0,.3-.06,.52-.17,.67-.11,.15-.31,.26-.59,.32,.29,.04,.51,.14,.64,.31,.14,.16,.21,.4,.21,.71v.54c0,.41-.07,.7-.21,.86-.14,.16-.39,.24-.75,.24h-2.53c-.36,0-.61-.08-.75-.23s-.21-.44-.21-.86v-.54c0-.31,.07-.54,.21-.71,.14-.17,.35-.27,.64-.31-.28-.07-.48-.18-.59-.33s-.17-.37-.17-.66v-.46c0-.38,.06-.64,.19-.79,.12-.14,.36-.21,.72-.21h2.47Zm-.22,2.89h-2.03c-.15,0-.25,.03-.3,.09s-.07,.19-.07,.38v.37c0,.19,.02,.31,.07,.37,.05,.06,.15,.09,.3,.09h2.03c.15,0,.25-.03,.3-.09,.05-.06,.07-.18,.07-.37v-.37c0-.19-.03-.32-.07-.38-.05-.06-.15-.09-.3-.09Zm-.09-2.02h-1.85c-.15,0-.25,.03-.31,.09-.05,.06-.08,.19-.08,.37v.26c0,.18,.03,.31,.08,.37,.05,.06,.15,.09,.31,.09h1.85c.15,0,.25-.03,.3-.09,.05-.06,.08-.18,.08-.37v-.26c0-.19-.03-.32-.08-.38-.05-.06-.15-.09-.3-.09Z"/><path class="cls-1" d="M85.69,92.94c.36,0,.6,.07,.72,.21,.12,.14,.19,.4,.19,.79v.46c0,.3-.06,.52-.17,.67s-.31,.26-.59,.32c.29,.04,.51,.14,.64,.31s.21,.4,.21,.71v.54c0,.41-.07,.7-.21,.86s-.39,.24-.75,.24h-2.53c-.36,0-.61-.08-.75-.23s-.21-.44-.21-.86v-.54c0-.31,.07-.54,.21-.71,.14-.17,.35-.27,.64-.31-.28-.07-.48-.18-.59-.33-.11-.15-.17-.37-.17-.66v-.46c0-.38,.06-.64,.19-.79,.12-.14,.36-.21,.72-.21h2.47Zm-.22,2.89h-2.03c-.15,0-.25,.03-.3,.09-.05,.06-.07,.19-.07,.38v.37c0,.19,.02,.31,.07,.37s.15,.09,.3,.09h2.03c.15,0,.25-.03,.3-.09s.07-.18,.07-.37v-.37c0-.19-.02-.32-.07-.38s-.15-.09-.3-.09Zm-.09-2.02h-1.85c-.15,0-.25,.03-.31,.09s-.08,.19-.08,.37v.26c0,.18,.03,.31,.08,.37,.05,.06,.15,.09,.31,.09h1.85c.15,0,.25-.03,.3-.09s.08-.18,.08-.37v-.26c0-.19-.03-.32-.08-.38s-.15-.09-.3-.09Z"/><path class="cls-1" d="M88.96,96.51h.14c.07,0,.11,.02,.14,.07,.03,.05,.04,.15,.04,.29v.8c0,.15-.01,.25-.04,.3-.03,.05-.12,.07-.28,.07h-.69c-.07,0-.11-.03-.14-.08-.03-.05-.04-.15-.04-.29v-.8c0-.15,.01-.25,.04-.29s.12-.07,.28-.07h.55Z"/><path class="cls-1" d="M90.68,94.14c0-.47,.06-.78,.19-.95s.36-.25,.71-.25h2.68c.35,0,.59,.08,.72,.25,.13,.17,.19,.49,.19,.95v2.69c0,.47-.06,.78-.19,.95-.13,.17-.37,.25-.72,.25h-2.68c-.35,0-.59-.08-.71-.25s-.19-.49-.19-.95v-2.69Zm.83,2.98h2.83v-3.32h-2.83v3.32Z"/><path class="cls-1" d="M99.51,98.1v-1.18h-3v-.85l2.97-3.18h.87v3.18h.96v.85h-.96v1.18h-.83Zm0-2.04v-2.28l-2.16,2.28h2.16Z"/><path class="cls-1" d="M102.54,94.14c0-.47,.06-.78,.19-.95s.36-.25,.71-.25h2.68c.35,0,.59,.08,.72,.25,.13,.17,.19,.49,.19,.95v2.69c0,.47-.06,.78-.19,.95-.13,.17-.37,.25-.72,.25h-2.68c-.35,0-.59-.08-.71-.25s-.19-.49-.19-.95v-2.69Zm.83,2.98h2.83v-3.32h-2.83v3.32Z"/><path class="cls-1" d="M109.87,98.13l2.13-4.32h-2.62v1.1l-.83-.19v-1.78h4.4v.82l-2.07,4.37h-1.01Z"/></g></g><g><path class="cls-1" d="M92.98,34.13c-2.19,0-3.34,.69-3.34,.69,.91-2.92-1.77-4.47-1.77-4.47,0,6.29-4.31,11.63-4.31,15.57h1.06s1.12-6.78,6.08-6.78c4.61,0,4.56,4.68,4.56,4.68,0,0,3.11-1.05,3.11-5.08,0-2.69-2.68-4.61-5.39-4.61Zm3.07,7.6s-.93-3.87-5.27-3.87c-2.4,0-3.85,1.33-3.85,1.33,0,0,1.7-3.81,6.08-3.81,2.51,0,4.11,1.64,4.11,3.54s-1.07,2.8-1.07,2.8Z"/><path class="cls-1" d="M85.25,50.1h-1.72c0,1.11,2.11,1.26,2.11,2.71,0,.37-.39,.79-.39,.79,1.41,0,1.7-.76,1.7-.76,1.31,1.12,2.91-.08,2.91-.08-2.86-.3-4.61-2.66-4.61-2.66Z"/><path class="cls-1" d="M81.54,45.9h.82c0-3.28,4.27-9.62,4.27-16.06s-5.09-9.98-5.09-9.98c0,0-5.09,3.54-5.09,9.98s4.27,12.78,4.27,16.06h.82Zm.01-24.27s3.75,3.8,3.75,7.71c0,6.23-3.76,13.77-3.76,14.83V21.63Z"/><path class="cls-1" d="M75.62,46.57c-2.05,0-2.1,2.9,0,2.9h11.85c2.1,0,2.05-2.9,0-2.9h-11.85Z"/><path class="cls-1" d="M78.48,45.91h1.06c0-3.93-4.31-9.27-4.31-15.57,0,0-2.68,1.54-1.77,4.47,0,0-1.15-.69-3.34-.69-2.72,0-5.39,1.93-5.39,4.61,0,4.03,3.11,5.08,3.11,5.08,0,0-.04-4.68,4.56-4.68,4.96,0,6.08,6.78,6.08,6.78Zm-6.17-8.05c-4.33,0-5.27,3.87-5.27,3.87,0,0-1.07-.9-1.07-2.8s1.59-3.54,4.11-3.54c4.38,0,6.08,3.81,6.08,3.81,0,0-1.46-1.33-3.85-1.33Z"/><path class="cls-1" d="M82.4,50.11h-1.72s-.2,4.46-3.35,4.29c0,0,.94,1.39,2.89,.72,0,0,.09,1.46,1.32,2.15,1.23-.69,1.32-2.15,1.32-2.15,1.96,.67,2.89-.72,2.89-.72-3.16,.17-3.35-4.29-3.35-4.29Zm-.86,5.68c-1.02-1.62,0-4,0-4,0,0,1.02,2.38,0,4Z"/><path class="cls-1" d="M77.44,52.81c0-1.46,2.11-1.61,2.11-2.71h-1.72s-1.75,2.37-4.61,2.66c0,0,1.6,1.2,2.91,.08,0,0,.3,.76,1.7,.76,0,0-.39-.42-.39-.79Z"/><path class="cls-2" d="M93.01,35.39c-4.38,0-6.08,3.81-6.08,3.81,0,0,1.46-1.33,3.85-1.33,4.33,0,5.27,3.87,5.27,3.87,0,0,1.07-.9,1.07-2.8s-1.59-3.54-4.11-3.54Z"/><path class="cls-2" d="M70.08,35.39c-2.51,0-4.11,1.64-4.11,3.54s1.07,2.8,1.07,2.8c0,0,.93-3.87,5.27-3.87,2.4,0,3.85,1.33,3.85,1.33,0,0-1.7-3.81-6.08-3.81Z"/><path class="cls-2" d="M81.56,21.63v22.54c-.01-1.06,3.75-8.6,3.75-14.83,0-3.91-3.75-7.71-3.75-7.71Z"/><path class="cls-2" d="M81.54,55.79c1.02-1.62,0-4,0-4,0,0-1.02,2.38,0,4Z"/></g></g></g></svg>